<svg width="80" height="80" viewBox="0 0 80 80" xmlns="http://www.w3.org/2000/svg">
  <rect width="80" height="80" rx="12" fill="#00979D"/>
  <rect x="6" y="12" width="68" height="52" rx="6" fill="#1a2e3f"/>
  <rect x="10" y="16" width="60" height="44" rx="4" fill="#0f1a24"/>
  <text x="40" y="26" font-family="Arial,sans-serif" font-size="5.5" font-weight="bold" fill="#94a3b8" text-anchor="middle">ARDUINO</text>
  <rect x="30" y="14" width="20" height="4" rx="1" fill="#64748b"/>
  <rect x="14" y="30" width="52" height="22" rx="2" fill="#1a2e3f"/>
  <text x="40" y="44" font-family="Arial,sans-serif" font-size="11" font-weight="bold" fill="#fbbf24" text-anchor="middle">MEGA</text>
  <text x="40" y="50" font-family="Arial,sans-serif" font-size="5" fill="#94a3b8" text-anchor="middle">2560</text>
  <circle cx="14" cy="16" r="2" fill="#4ade80"/>
  <circle cx="66" cy="16" r="2" fill="#f87171"/>
  <rect x="8" y="62" width="8" height="3" rx="1" fill="#475569"/>
  <rect x="18" y="62" width="8" height="3" rx="1" fill="#475569"/>
  <rect x="28" y="62" width="8" height="3" rx="1" fill="#475569"/>
  <rect x="38" y="62" width="8" height="3" rx="1" fill="#475569"/>
  <rect x="48" y="62" width="8" height="3" rx="1" fill="#475569"/>
  <rect x="58" y="62" width="8" height="3" rx="1" fill="#475569"/>
</svg>
